<?xml version="1.0" encoding="UTF-8" standalone="no"?>
<!-- Created with Inkscape (http://www.inkscape.org/) -->
<svg
   xmlns:svg="http://www.w3.org/2000/svg"
   xmlns="http://www.w3.org/2000/svg"
   version="1.0"
   width="708.66144"
   height="210.2012"
   id="svg24543">
  <defs
     id="defs24545" />
  <g
     transform="translate(-283.90676,-419.96135)"
     id="layer1">
    <g
       transform="matrix(7.0333136,0,0,7.0333136,-1712.8988,-3801.9685)"
       id="g24579">
      <path
         d="M 306.0963,627.07477 L 305.73428,627.07477 L 305.73428,628.8487 C 305.73428,629.54096 305.29278,629.85619 304.55107,629.85619 C 303.80936,629.85619 303.35904,629.54096 303.35904,628.8487 L 303.35904,627.07477 L 302.99701,627.07477 L 302.99701,628.8487 C 302.99701,629.9383 303.84468,630.16258 304.55107,630.16258 C 305.24863,630.16258 306.0963,629.9383 306.0963,628.8487 L 306.0963,627.07477"
         style="fill:#58595a;fill-rule:nonzero;stroke:none;stroke-width:0.197;stroke-linecap:butt;stroke-linejoin:miter;stroke-miterlimit:3.86400008;stroke-dasharray:none"
         id="path23562" />
      <path
         d="M 306.73206,630.08753 L 307.08525,630.08753 L 307.08525,627.39795 L 309.49581,630.08753 L 309.86666,630.08753 L 309.86666,627.07477 L 309.49581,627.07477 L 309.49581,629.55332 L 307.25302,627.07477 L 306.73206,627.07477 L 306.73206,630.08753"
         style="fill:#58595a;fill-rule:nonzero;stroke:none;stroke-width:0.197;stroke-linecap:butt;stroke-linejoin:miter;stroke-miterlimit:3.86400008;stroke-dasharray:none"
         id="path23564" />
      <path
         d="M 310.65252,630.08753 L 311.01455,630.08753 L 311.01455,627.07477 L 310.65252,627.07477 L 310.65252,630.08753 z "
         style="fill:#58595a;fill-rule:nonzero;stroke:none;stroke-width:0.197;stroke-linecap:butt;stroke-linejoin:miter;stroke-miterlimit:3.86400008;stroke-dasharray:none"
         id="path23566" />
      <path
         d="M 311.39423,627.07477 L 312.95712,630.08753 L 313.31032,630.08753 L 314.87321,627.07477 L 314.46704,627.07477 L 313.13372,629.69018 L 311.80041,627.07477 L 311.39423,627.07477"
         style="fill:#58595a;fill-rule:nonzero;stroke:none;stroke-width:0.197;stroke-linecap:butt;stroke-linejoin:miter;stroke-miterlimit:3.86400008;stroke-dasharray:none"
         id="path23568" />
      <path
         d="M 315.2529,630.08753 L 317.99016,630.08753 L 317.99016,629.76436 L 315.61492,629.76436 L 315.61492,628.68269 L 317.5575,628.68269 L 317.5575,628.35864 L 315.61492,628.35864 L 315.61492,627.39795 L 317.93718,627.39795 L 317.93718,627.07477 L 315.2529,627.07477 L 315.2529,630.08753"
         style="fill:#58595a;fill-rule:nonzero;stroke:none;stroke-width:0.197;stroke-linecap:butt;stroke-linejoin:miter;stroke-miterlimit:3.86400008;stroke-dasharray:none"
         id="path23570" />
      <path
         d="M 318.84666,627.39795 L 320.13582,627.39795 C 320.66562,627.39795 321.06296,627.473 321.06296,627.91185 C 321.06296,628.35599 320.66562,628.43016 320.13582,628.43016 L 318.84666,628.43016 L 318.84666,627.39795 z M 318.4758,630.08753 L 318.84666,630.08753 L 318.84666,628.75333 L 320.02986,628.75333 L 321.00115,630.08753 L 321.45147,630.08753 L 320.46253,628.7445 C 320.82455,628.72861 321.40733,628.54583 321.40733,627.91626 C 321.40733,627.17808 320.70093,627.07477 320.22412,627.07477 L 318.4758,627.07477 L 318.4758,630.08753"
         style="fill:#58595a;fill-rule:evenodd;stroke:none;stroke-width:0.197;stroke-linecap:butt;stroke-linejoin:miter;stroke-miterlimit:3.86400008;stroke-dasharray:none"
         id="path23572" />
      <path
         d="M 321.75169,629.46679 C 322.00776,629.75288 322.36978,630.16258 323.35873,630.16258 C 324.383,630.16258 324.86864,629.74405 324.86864,629.23986 C 324.86864,627.88712 322.24616,628.75951 322.24616,627.84562 C 322.24616,627.46417 322.67,627.307 323.27043,627.307 C 324.09161,627.307 324.383,627.69286 324.51545,627.83326 L 324.78034,627.61781 C 324.56842,627.32731 324.08278,626.99972 323.27926,626.99972 C 322.45808,626.99972 321.86648,627.26108 321.86648,627.9039 C 321.86648,629.12772 324.49779,628.32243 324.49779,629.23986 C 324.49779,629.70696 323.86203,629.83941 323.40288,629.83941 C 322.4934,629.83941 322.20202,629.45884 322.03425,629.2275 L 321.75169,629.46679"
         style="fill:#58595a;fill-rule:nonzero;stroke:none;stroke-width:0.197;stroke-linecap:butt;stroke-linejoin:miter;stroke-miterlimit:3.86400008;stroke-dasharray:none"
         id="path23574" />
      <path
         d="M 325.45141,630.08753 L 325.81344,630.08753 L 325.81344,627.07477 L 325.45141,627.07477 L 325.45141,630.08753 z "
         style="fill:#58595a;fill-rule:nonzero;stroke:none;stroke-width:0.197;stroke-linecap:butt;stroke-linejoin:miter;stroke-miterlimit:3.86400008;stroke-dasharray:none"
         id="path23576" />
      <path
         d="M 327.75601,630.08753 L 328.11804,630.08753 L 328.11804,627.39795 L 329.57497,627.39795 L 329.57497,627.07477 L 326.29908,627.07477 L 326.29908,627.39795 L 327.75601,627.39795 L 327.75601,630.08753"
         style="fill:#58595a;fill-rule:nonzero;stroke:none;stroke-width:0.197;stroke-linecap:butt;stroke-linejoin:miter;stroke-miterlimit:3.86400008;stroke-dasharray:none"
         id="path23578" />
      <path
         d="M 330.5286,626.76396 L 330.89945,626.76396 L 330.89945,626.34101 L 330.5286,626.34101 L 330.5286,626.76396 z M 331.27914,626.76396 L 331.65882,626.76396 L 331.65882,626.34101 L 331.27914,626.34101 L 331.27914,626.76396 z M 330.28136,628.98114 L 331.09371,627.36086 L 331.89723,628.98114 L 330.28136,628.98114 z M 329.3189,630.08753 L 329.72508,630.08753 L 330.11359,629.30432 L 332.065,629.30432 L 332.45351,630.08753 L 332.85969,630.08753 L 331.31446,627.07477 L 330.86413,627.07477 L 329.3189,630.08753"
         style="fill:#58595a;fill-rule:evenodd;stroke:none;stroke-width:0.197;stroke-linecap:butt;stroke-linejoin:miter;stroke-miterlimit:3.86400008;stroke-dasharray:none"
         id="path23580" />
      <path
         d="M 334.27247,630.08753 L 334.63449,630.08753 L 334.63449,627.39795 L 336.09143,627.39795 L 336.09143,627.07477 L 332.81554,627.07477 L 332.81554,627.39795 L 334.27247,627.39795 L 334.27247,630.08753"
         style="fill:#58595a;fill-rule:nonzero;stroke:none;stroke-width:0.197;stroke-linecap:butt;stroke-linejoin:miter;stroke-miterlimit:3.86400008;stroke-dasharray:none"
         id="path23582" />
      <path
         d="M 338.06932,630.08753 L 340.81541,630.08753 L 340.81541,629.76436 L 338.43135,629.76436 L 338.43135,627.07477 L 338.06932,627.07477 L 338.06932,630.08753"
         style="fill:#58595a;fill-rule:nonzero;stroke:none;stroke-width:0.197;stroke-linecap:butt;stroke-linejoin:miter;stroke-miterlimit:3.86400008;stroke-dasharray:none"
         id="path23584" />
      <path
         d="M 342.13107,626.76396 L 342.50192,626.76396 L 342.50192,626.34101 L 342.13107,626.34101 L 342.13107,626.76396 z M 342.88161,626.76396 L 343.25246,626.76396 L 343.25246,626.34101 L 342.88161,626.34101 L 342.88161,626.76396 z M 344.24141,627.07477 L 343.87939,627.07477 L 343.87939,628.8487 C 343.87939,629.54096 343.43789,629.85619 342.68735,629.85619 C 341.94564,629.85619 341.50415,629.54096 341.50415,628.8487 L 341.50415,627.07477 L 341.14212,627.07477 L 341.14212,628.8487 C 341.14212,629.9383 341.98979,630.16258 342.68735,630.16258 C 343.39374,630.16258 344.24141,629.9383 344.24141,628.8487 L 344.24141,627.07477"
         style="fill:#58595a;fill-rule:evenodd;stroke:none;stroke-width:0.197;stroke-linecap:butt;stroke-linejoin:miter;stroke-miterlimit:3.86400008;stroke-dasharray:none"
         id="path23586" />
      <path
         d="M 344.83301,630.08753 L 345.18621,630.08753 L 345.18621,627.39795 L 347.59677,630.08753 L 347.96762,630.08753 L 347.96762,627.07477 L 347.59677,627.07477 L 347.59677,629.55332 L 345.35398,627.07477 L 344.83301,627.07477 L 344.83301,630.08753"
         style="fill:#58595a;fill-rule:nonzero;stroke:none;stroke-width:0.197;stroke-linecap:butt;stroke-linejoin:miter;stroke-miterlimit:3.86400008;stroke-dasharray:none"
         id="path23588" />
      <path
         d="M 348.58571,630.08753 L 351.32298,630.08753 L 351.32298,629.76436 L 348.94774,629.76436 L 348.94774,628.68269 L 350.89031,628.68269 L 350.89031,628.35864 L 348.94774,628.35864 L 348.94774,627.39795 L 351.27,627.39795 L 351.27,627.07477 L 348.58571,627.07477 L 348.58571,630.08753"
         style="fill:#58595a;fill-rule:nonzero;stroke:none;stroke-width:0.197;stroke-linecap:butt;stroke-linejoin:miter;stroke-miterlimit:3.86400008;stroke-dasharray:none"
         id="path23590" />
      <path
         d="M 351.81745,630.08753 L 353.35385,630.08753 C 353.98078,630.08753 354.82844,630.05398 354.82844,629.24251 C 354.82844,628.74097 354.44876,628.57497 354.27216,628.49638 C 354.45759,628.40544 354.73132,628.27652 354.73132,627.86151 C 354.73132,627.07477 353.90131,627.07477 353.55694,627.07477 L 351.81745,627.07477 L 351.81745,630.08753 z M 352.17948,628.66592 L 353.63641,628.66592 C 354.13088,628.66592 354.45759,628.81161 354.45759,629.23015 C 354.45759,629.69018 354.03375,629.76436 353.59226,629.76436 L 352.17948,629.76436 L 352.17948,628.66592 z M 352.17948,627.38117 L 353.33619,627.38117 C 353.87482,627.38117 354.36046,627.38558 354.36046,627.86681 C 354.36046,628.28888 353.88365,628.35864 353.45981,628.35864 L 352.17948,628.35864 L 352.17948,627.38117"
         style="fill:#58595a;fill-rule:evenodd;stroke:none;stroke-width:0.197;stroke-linecap:butt;stroke-linejoin:miter;stroke-miterlimit:3.86400008;stroke-dasharray:none"
         id="path23592" />
      <path
         d="M 358.36923,627.07477 L 357.99837,627.07477 L 357.99837,628.8487 C 357.99837,629.54096 357.55688,629.85619 356.81517,629.85619 C 356.07346,629.85619 355.63196,629.54096 355.63196,628.8487 L 355.63196,627.07477 L 355.26111,627.07477 L 355.26111,628.8487 C 355.26111,629.9383 356.11761,630.16258 356.81517,630.16258 C 357.51273,630.16258 358.36923,629.9383 358.36923,628.8487 L 358.36923,627.07477"
         style="fill:#58595a;fill-rule:nonzero;stroke:none;stroke-width:0.197;stroke-linecap:butt;stroke-linejoin:miter;stroke-miterlimit:3.86400008;stroke-dasharray:none"
         id="path23594" />
      <path
         d="M 359.36701,627.39795 L 360.65617,627.39795 C 361.18596,627.39795 361.58331,627.473 361.58331,627.91185 C 361.58331,628.35599 361.18596,628.43016 360.65617,628.43016 L 359.36701,628.43016 L 359.36701,627.39795 z M 358.99615,630.08753 L 359.36701,630.08753 L 359.36701,628.75333 L 360.55021,628.75333 L 361.5215,630.08753 L 361.97182,630.08753 L 360.98287,628.7445 C 361.3449,628.72861 361.92767,628.54583 361.92767,627.91626 C 361.92767,627.17808 361.22128,627.07477 360.74447,627.07477 L 358.99615,627.07477 L 358.99615,630.08753"
         style="fill:#58595a;fill-rule:evenodd;stroke:none;stroke-width:0.197;stroke-linecap:butt;stroke-linejoin:miter;stroke-miterlimit:3.86400008;stroke-dasharray:none"
         id="path23596" />
      <path
         d="M 364.02036,628.6253 L 364.02036,628.94847 L 365.23888,628.94847 C 365.19473,629.57363 364.60313,629.83941 364.05567,629.83941 C 363.16386,629.83941 362.69587,629.32463 362.69587,628.63325 C 362.69587,627.77586 363.18152,627.307 364.02036,627.307 C 364.42653,627.307 364.98281,627.45181 365.22122,627.99043 L 365.53027,627.82884 C 365.30952,627.32289 364.75324,626.99972 364.03802,626.99972 C 363.02258,626.99972 362.31619,627.55159 362.31619,628.58733 C 362.31619,629.46237 362.87247,630.16258 364.03802,630.16258 C 364.71792,630.16258 365.04462,629.91005 365.24771,629.67341 L 365.24771,630.11314 L 365.57442,630.11314 L 365.57442,628.6253 L 364.02036,628.6253"
         style="fill:#58595a;fill-rule:evenodd;stroke:none;stroke-width:0.197;stroke-linecap:butt;stroke-linejoin:miter;stroke-miterlimit:3.86400008;stroke-dasharray:none"
         id="path23598" />
      <path
         d="M 293.16935,624.47879 L 293.16935,621.24263 L 291.88902,621.24263 L 291.88902,621.89958 C 291.88902,622.47528 291.8537,622.71722 291.70359,622.91236 C 291.52699,623.16666 291.25326,623.24613 290.58219,623.24613 L 287.95972,623.24613 L 287.95972,619.25061 C 287.95972,618.98571 287.95972,618.78969 287.96855,618.67402 C 287.96855,618.47888 288.00387,618.31729 288.07451,618.22546 C 288.19812,618.05239 288.29525,618.02944 288.78973,618.02944 L 289.58442,618.02944 L 289.58442,616.79767 L 283.9068,616.79767 L 283.9068,618.02944 L 284.64851,618.02944 C 285.14298,618.02944 285.24894,618.06387 285.3549,618.22546 C 285.42554,618.32877 285.47852,618.49036 285.47852,618.67402 L 285.47852,622.60243 C 285.47852,622.79758 285.42554,622.95916 285.3549,623.05099 C 285.24011,623.22406 285.13415,623.24613 284.64851,623.24613 L 283.9068,623.24613 L 283.9068,624.47879 L 293.16935,624.47879"
         style="fill:#740031;fill-rule:nonzero;stroke:none;stroke-width:0.197;stroke-linecap:butt;stroke-linejoin:miter;stroke-miterlimit:3.86400008;stroke-dasharray:none"
         id="path23600" />
      <path
         d="M 305.14268,624.47879 L 305.14268,621.34682 L 303.90649,621.34682 L 303.90649,621.76183 C 303.90649,622.37197 303.86234,622.65983 303.69457,622.90088 C 303.50915,623.17814 303.2884,623.24613 302.64382,623.24613 L 299.02356,623.24613 L 299.02356,621.17376 L 300.6306,621.17376 C 301.12508,621.17376 301.25753,621.21967 301.36348,621.46161 C 301.43412,621.6232 301.44295,621.67971 301.44295,622.01436 L 301.44295,622.39493 L 302.64382,622.39493 L 302.64382,618.72082 L 301.44295,618.72082 L 301.44295,619.38836 C 301.44295,619.61882 301.35465,619.80336 301.22221,619.87223 C 301.10742,619.92963 300.99263,619.94199 300.67475,619.94199 L 299.02356,619.94199 L 299.02356,618.02944 L 302.82925,618.02944 C 302.96169,618.02944 303.08531,618.04092 303.2001,618.07535 C 303.35904,618.10979 303.50915,618.2131 303.62394,618.35173 C 303.83585,618.59367 303.90649,618.8824 303.90649,619.49167 L 303.90649,619.81484 L 305.14268,619.81484 L 305.14268,616.79767 L 294.97948,616.79767 L 294.97948,618.02944 L 295.70353,618.02944 C 296.198,618.02944 296.31279,618.06387 296.41875,618.22546 C 296.53354,618.39764 296.53354,618.44356 296.53354,619.25061 L 296.53354,622.03732 C 296.53354,622.84349 296.53354,622.90088 296.41875,623.05099 C 296.2863,623.22406 296.18917,623.24613 295.70353,623.24613 L 294.97948,623.24613 L 294.97948,624.47879 L 305.14268,624.47879"
         style="fill:#740031;fill-rule:nonzero;stroke:none;stroke-width:0.197;stroke-linecap:butt;stroke-linejoin:miter;stroke-miterlimit:3.86400008;stroke-dasharray:none"
         id="path23602" />
      <path
         d="M 318.71421,618.02944 L 318.71421,616.79767 L 314.3081,616.79767 L 314.3081,618.02944 L 315.04098,618.02944 C 315.54428,618.02944 315.64141,618.06387 315.74737,618.22546 C 315.81801,618.32877 315.87099,618.49036 315.87099,618.67402 L 315.87099,621.39274 C 315.87099,621.70355 315.81801,621.97993 315.74737,622.21039 C 315.64141,622.54416 315.45598,622.83201 315.20875,623.01567 C 314.78491,623.33885 314.16682,623.52339 313.51341,623.52339 C 312.28605,623.52339 311.37658,622.95916 311.147,622.08324 C 311.06753,621.76183 311.04104,621.46161 311.04104,620.8965 L 311.04104,618.67402 C 311.04104,618.47888 311.08519,618.31729 311.15583,618.22546 C 311.27062,618.05239 311.37658,618.02944 311.87105,618.02944 L 312.5951,618.02944 L 312.5951,616.79767 L 306.93514,616.79767 L 306.93514,618.02944 L 307.66802,618.02944 C 308.17133,618.02944 308.26846,618.06387 308.37441,618.22546 C 308.49803,618.39764 308.49803,618.44356 308.49803,619.25061 L 308.49803,621.55344 C 308.49803,622.54416 308.69229,623.11987 309.21325,623.67262 C 309.74305,624.22537 310.40529,624.52558 311.46487,624.66421 C 311.95935,624.73309 312.47148,624.76752 312.97478,624.76752 C 314.7231,624.76752 315.87982,624.38695 316.54206,623.56931 C 317.01887,622.98212 317.15132,622.47528 317.15132,621.2082 L 317.15132,619.25061 C 317.15132,618.43296 317.16015,618.38616 317.26611,618.22546 C 317.38973,618.05239 317.49569,618.02944 317.98133,618.02944 L 318.71421,618.02944"
         style="fill:#740031;fill-rule:nonzero;stroke:none;stroke-width:0.197;stroke-linecap:butt;stroke-linejoin:miter;stroke-miterlimit:3.86400008;stroke-dasharray:none"
         id="path23604" />
      <path
         d="M 330.91711,619.1005 C 330.91711,618.07535 330.29019,617.23475 329.35422,616.96985 C 328.93039,616.85418 328.47123,616.79767 327.83548,616.79767 L 320.29476,616.79767 L 320.29476,618.02944 L 321.02764,618.02944 C 321.52211,618.02944 321.6369,618.06387 321.73403,618.22546 C 321.80467,618.32877 321.84882,618.49036 321.84882,618.67402 L 321.84882,622.60243 C 321.84882,622.79758 321.80467,622.95916 321.73403,623.05099 C 321.61041,623.22406 321.51328,623.24613 321.02764,623.24613 L 320.29476,623.24613 L 320.29476,624.47879 L 326.11365,624.47879 L 326.11365,623.24613 L 325.17769,623.24613 C 324.68321,623.24613 324.55959,623.22406 324.46247,623.05099 C 324.39183,622.94768 324.35651,622.7861 324.34768,622.60243 C 324.34768,622.47528 324.33885,622.29074 324.33885,622.03732 L 324.33885,621.47309 L 327.39399,621.47309 C 328.62134,621.47309 329.36305,621.32298 329.95466,620.95478 C 330.55509,620.57509 330.91711,619.87223 330.91711,619.1005 z M 328.18868,619.13582 C 328.18868,619.48107 328.0474,619.82632 327.82665,619.9985 C 327.60591,620.17157 327.26154,620.24044 326.67877,620.24044 L 324.33885,620.24044 L 324.33885,618.02944 L 326.65228,618.02944 C 326.88185,618.02944 327.1909,618.05239 327.35867,618.07535 C 327.57059,618.10979 327.75601,618.2025 327.90612,618.36321 C 328.09155,618.54775 328.18868,618.83561 328.18868,619.13582"
         style="fill:#740031;fill-rule:evenodd;stroke:none;stroke-width:0.197;stroke-linecap:butt;stroke-linejoin:miter;stroke-miterlimit:3.86400008;stroke-dasharray:none"
         id="path23606" />
      <path
         d="M 345.16855,624.47879 L 345.16855,623.24613 L 344.43567,623.24613 C 343.94119,623.24613 343.83524,623.21258 343.72928,623.05099 C 343.65864,622.94768 343.60566,622.7861 343.60566,622.60243 L 343.60566,619.25061 C 343.60566,618.43296 343.60566,618.38616 343.72928,618.22546 C 343.84407,618.05239 343.94119,618.02944 344.43567,618.02944 L 345.16855,618.02944 L 345.16855,616.79767 L 339.55274,616.79767 L 339.55274,618.02944 L 340.29445,618.02944 C 340.78893,618.02944 340.89488,618.06387 341.00967,618.22546 C 341.11563,618.39764 341.12446,618.44356 341.12446,619.25061 L 341.12446,619.92963 L 336.84197,619.92963 L 336.84197,619.25061 C 336.84197,618.43296 336.85963,618.38616 336.96558,618.22546 C 337.08037,618.05239 337.18633,618.02944 337.67198,618.02944 L 338.41369,618.02944 L 338.41369,616.79767 L 332.80671,616.79767 L 332.80671,618.02944 L 333.53076,618.02944 C 334.02523,618.02944 334.13119,618.06387 334.24598,618.22546 C 334.36077,618.39764 334.36077,618.44356 334.36077,619.25061 L 334.36077,622.03732 C 334.36077,622.84349 334.36077,622.90088 334.24598,623.05099 C 334.11353,623.22406 334.02523,623.24613 333.53076,623.24613 L 332.80671,623.24613 L 332.80671,624.47879 L 338.41369,624.47879 L 338.41369,623.24613 L 337.67198,623.24613 C 337.18633,623.24613 337.07154,623.21258 336.96558,623.05099 C 336.89495,622.94768 336.85963,622.7861 336.85963,622.60243 C 336.85963,622.47528 336.84197,622.29074 336.84197,622.03732 L 336.84197,621.26559 L 341.12446,621.26559 L 341.12446,622.03732 C 341.12446,622.84349 341.11563,622.90088 341.00967,623.05099 C 340.88605,623.22406 340.7801,623.24613 340.29445,623.24613 L 339.55274,623.24613 L 339.55274,624.47879 L 345.16855,624.47879"
         style="fill:#740031;fill-rule:nonzero;stroke:none;stroke-width:0.197;stroke-linecap:butt;stroke-linejoin:miter;stroke-miterlimit:3.86400008;stroke-dasharray:none"
         id="path23608" />
      <path
         d="M 358.50168,624.47879 L 358.50168,623.24613 L 358.13965,623.24613 C 357.70699,623.24613 357.55688,623.2011 357.38911,623.00419 C 357.27432,622.86645 357.18602,622.7287 357.01826,622.41789 L 353.9896,616.79767 L 351.28766,616.79767 L 348.2855,622.19891 C 348.17071,622.38345 348.1089,622.49824 348.08241,622.54416 C 348.01177,622.65983 347.9323,622.77462 347.86166,622.89029 C 347.74688,623.01567 347.64092,623.10839 347.53496,623.16666 C 347.41134,623.22406 347.23474,623.24613 346.98751,623.24613 L 346.71378,623.24613 L 346.71378,624.47879 L 350.79319,624.47879 L 350.79319,623.24613 L 349.97201,623.24613 C 349.58349,623.24613 349.45104,623.17814 349.45104,622.9362 C 349.45104,622.87881 349.45987,622.82142 349.48636,622.77462 C 349.49519,622.76314 349.53051,622.6819 349.60115,622.54416 L 349.85722,622.01436 L 353.88365,622.01436 L 354.21918,622.6819 C 354.2545,622.76314 354.28099,622.82142 354.28982,622.84349 C 354.31631,622.89029 354.32514,622.9362 354.32514,622.98212 C 354.32514,623.17814 354.18386,623.24613 353.83067,623.24613 L 352.92119,623.24613 L 352.92119,624.47879 L 358.50168,624.47879 z M 353.28321,620.8859 L 350.43999,620.8859 L 351.87926,618.24842 L 353.28321,620.8859"
         style="fill:#740031;fill-rule:evenodd;stroke:none;stroke-width:0.197;stroke-linecap:butt;stroke-linejoin:miter;stroke-miterlimit:3.86400008;stroke-dasharray:none"
         id="path23610" />
      <path
         d="M 371.8348,618.02944 L 371.8348,616.79767 L 367.61412,616.79767 L 367.61412,618.02944 L 368.33817,618.02944 C 368.83264,618.02944 368.94743,618.06387 369.05339,618.22546 C 369.16818,618.39764 369.16818,618.44356 369.16818,619.25061 L 369.16818,622.01436 L 364.42653,616.79767 L 360.03808,616.79767 L 360.03808,618.02944 L 360.77096,618.02944 C 361.26543,618.02944 361.37139,618.06387 361.47735,618.22546 C 361.60097,618.39764 361.60097,618.44356 361.60097,619.25061 L 361.60097,622.03732 C 361.60097,622.84349 361.60097,622.90088 361.47735,623.05099 C 361.35373,623.22406 361.2566,623.24613 360.77096,623.24613 L 360.03808,623.24613 L 360.03808,624.47879 L 364.44419,624.47879 L 364.44419,623.24613 L 363.71131,623.24613 C 363.22567,623.24613 363.11088,623.21258 362.99609,623.05099 C 362.92545,622.94768 362.89013,622.7861 362.89013,622.60243 C 362.8813,622.47528 362.8813,622.29074 362.8813,622.03732 L 362.8813,619.16937 L 367.73774,624.47879 L 370.44851,624.47879 L 370.44851,619.25061 C 370.44851,618.43296 370.45734,618.37557 370.57213,618.22546 C 370.68692,618.05239 370.78405,618.02944 371.26969,618.02944 L 371.8348,618.02944"
         style="fill:#740031;fill-rule:nonzero;stroke:none;stroke-width:0.197;stroke-linecap:butt;stroke-linejoin:miter;stroke-miterlimit:3.86400008;stroke-dasharray:none"
         id="path23612" />
      <path
         d="M 384.66463,624.47879 L 384.66463,623.24613 L 384.3026,623.24613 C 383.86994,623.24613 383.71983,623.2011 383.55206,623.00419 C 383.42844,622.86645 383.34015,622.7287 383.18121,622.41789 L 380.15256,616.79767 L 377.45061,616.79767 L 374.43962,622.19891 C 374.33366,622.38345 374.27185,622.49824 374.24536,622.54416 C 374.17472,622.65983 374.09526,622.77462 374.01579,622.89029 C 373.90983,623.01567 373.80387,623.10839 373.69791,623.16666 C 373.57429,623.22406 373.39769,623.24613 373.15046,623.24613 L 372.87673,623.24613 L 372.87673,624.47879 L 376.95614,624.47879 L 376.95614,623.24613 L 376.13496,623.24613 C 375.74644,623.24613 375.614,623.17814 375.614,622.9362 C 375.614,622.87881 375.62283,622.82142 375.64932,622.77462 C 375.65815,622.76314 375.69346,622.6819 375.7641,622.54416 L 376.02017,622.01436 L 380.0466,622.01436 L 380.3733,622.6819 C 380.41745,622.76314 380.44394,622.82142 380.45277,622.84349 C 380.47926,622.89029 380.48809,622.9362 380.48809,622.98212 C 380.48809,623.17814 380.34681,623.24613 379.99362,623.24613 L 379.08414,623.24613 L 379.08414,624.47879 L 384.66463,624.47879 z M 379.43734,620.8859 L 376.60294,620.8859 L 378.04221,618.24842 L 379.43734,620.8859"
         style="fill:#740031;fill-rule:evenodd;stroke:none;stroke-width:0.197;stroke-linecap:butt;stroke-linejoin:miter;stroke-miterlimit:3.86400008;stroke-dasharray:none"
         id="path23614" />
      <path
         d="M 334.29013,600.27607 L 329.02752,603.30472 L 329.02752,609.36997 L 334.29013,612.40038 L 339.54391,609.36997 L 339.54391,603.30472 L 334.29013,600.27607 z M 334.59918,601.18555 C 335.45567,601.68002 337.74261,602.99567 338.59028,603.49015 L 334.59918,605.7921 L 334.59918,601.18555 z M 333.97225,605.79121 L 329.98114,603.49015 C 330.83764,602.99567 333.11575,601.68002 333.97225,601.18555 L 333.97225,605.79121 z M 333.65438,606.33867 L 329.66327,608.64062 L 329.66327,604.0376 L 333.65438,606.33867 z M 333.97225,606.88524 L 333.97225,611.48914 C 333.11575,610.99643 330.83764,609.6799 329.98114,609.18719 L 333.97225,606.88524 z M 334.59918,606.88524 L 338.59028,609.18719 C 337.74261,609.6799 335.45567,610.99643 334.59918,611.48914 L 334.59918,606.88524 z M 334.91705,606.33867 L 338.90816,604.0376 L 338.90816,608.64062 L 334.91705,606.33867"
         style="fill:#58595a;fill-rule:nonzero;stroke:none;stroke-width:0.197;stroke-linecap:butt;stroke-linejoin:miter;stroke-miterlimit:3.86400008;stroke-dasharray:none"
         id="path23616" />
    </g>
  </g>
</svg>
